<?xml version="1.0" standalone="no"?>
<!DOCTYPE svg PUBLIC "-//W3C//DTD SVG 20010904//EN"
 "http://www.w3.org/TR/2001/REC-SVG-20010904/DTD/svg10.dtd">
<svg version="1.0" xmlns="http://www.w3.org/2000/svg"
 width="512.000000pt" height="512.000000pt" viewBox="0 0 512.000000 512.000000"
 preserveAspectRatio="xMidYMid meet">

<g transform="translate(0.000000,512.000000) scale(0.100000,-0.100000)"
fill="#000000" stroke="none">
<path d="M1321 4784 c-169 -45 -301 -180 -346 -351 -13 -50 -15 -296 -15
-1873 0 -1999 -4 -1868 61 -1991 62 -115 197 -214 328 -239 70 -13 432 -13
502 0 184 35 345 196 379 379 14 75 14 3629 0 3702 -34 177 -177 327 -355 374
-81 21 -475 20 -554 -1z"/>
<path d="M3241 4784 c-169 -45 -301 -180 -346 -351 -13 -50 -15 -296 -15
-1873 0 -1999 -4 -1868 61 -1991 62 -115 197 -214 328 -239 70 -13 432 -13
502 0 184 35 345 196 379 379 14 75 14 3629 0 3702 -34 177 -177 327 -355 374
-81 21 -475 20 -554 -1z"/>
</g>
</svg>
